<svg width="20px" xmlns="http://www.w3.org/2000/svg" xmlns:xlink="http://www.w3.org/1999/xlink" id="Layer_1" x="0px" y="0px" viewBox="0 0 24 24" style="enable-background:new 0 0 24 24;" xml:space="preserve">
<style type="text/css" media="all">.st0{fill:none;}</style>
<g>
<path class="st0" d="M14.3,5c0-0.7-0.6-1.2-1.2-1.2h-2c-0.7,0-1.2,0.6-1.2,1.2v1.2h4.4V5z"></path>
<path class="st0" d="M17,7.8h-1.2v1.7c0,0.4-0.4,0.8-0.8,0.8s-0.8-0.3-0.8-0.8V7.8H9.8v1.7c0,0.4-0.4,0.8-0.8,0.8S8.2,10,8.2,9.5   V7.8H7C6.3,7.8,5.8,8.3,5.8,9v10c0,0.7,0.6,1.2,1.2,1.2h10c0.7,0,1.2-0.6,1.2-1.2V9C18.2,8.3,17.6,7.8,17,7.8z"></path>
<path d="M17,6.2h-1.2V5c0-1.6-1.3-2.8-2.8-2.8h-2C9.4,2.2,8.2,3.5,8.2,5v1.2H7C5.4,6.2,4.2,7.5,4.2,9v10c0,1.6,1.3,2.8,2.8,2.8h10   c1.5,0,2.8-1.3,2.8-2.8V9C19.8,7.4,18.5,6.2,17,6.2z M9.9,5c0-0.6,0.5-1.2,1.2-1.2h2c0.6,0,1.2,0.5,1.2,1.2v1.2H9.9V5z M18.2,19   c0,0.6-0.5,1.2-1.2,1.2H7c-0.6,0-1.2-0.5-1.2-1.2V9c0-0.7,0.5-1.2,1.2-1.2h1.2v1.7c0,0.5,0.4,0.8,0.8,0.8s0.8-0.4,0.8-0.8V7.8h4.4   v1.7c0,0.5,0.4,0.8,0.8,0.8s0.8-0.4,0.8-0.8V7.8H17c0.6,0,1.2,0.5,1.2,1.2V19z"></path>
</g>
</svg>