<svg width="20px" xmlns="http://www.w3.org/2000/svg" xmlns:xlink="http://www.w3.org/1999/xlink" id="Layer_1" x="0px" y="0px" viewBox="0 0 24 24" style="enable-background:new 0 0 24 24;" xml:space="preserve">
<path d="M21,21.8c-0.2,0-0.4-0.1-0.5-0.2L14.9,16c-1.3,1.1-3.1,1.8-4.9,1.8c-4.3,0-7.8-3.5-7.8-7.8S5.7,2.2,10,2.2s7.8,3.5,7.8,7.8  c0,1.9-0.7,3.6-1.8,4.9l5.5,5.5c0.3,0.3,0.3,0.8,0,1.1C21.4,21.7,21.2,21.8,21,21.8z M10,3.8c-3.4,0-6.2,2.8-6.2,6.2  s2.8,6.2,6.2,6.2s6.2-2.8,6.2-6.2S13.4,3.8,10,3.8z"></path>
</svg>